<svg id="Capa_1" enable-background="new 0 0 512.008 512.008" height="512" viewBox="0 0 512.008 512.008" width="512" xmlns="http://www.w3.org/2000/svg"><g id="XMLID_1612_"><g id="XMLID_273_"><path id="XMLID_289_" fill="#f5f5f5" d="m482.004 80.008h-245.318c-3.779-9.911-8.719-19.765-14.952-29.975-3.829-6.27-11.206-9.378-18.351-7.732-6.237 1.436-10.915 5.984-12.547 11.95-4.888-18.331-16.974-39.046-44.935-53.043-4.191-2.097-9.152-1.429-12.639 1.707-3.491 3.138-4.685 8.006-3.044 12.401 5.933 15.892 3.378 26.504-8.816 36.626-6.068 5.036-10.854 10.704-14.627 16.491-2.592-6.79-6.175-13.869-11.099-20.871-4.127-5.869-11.279-8.463-18.217-6.605-6.992 1.87-11.93 7.733-12.58 14.938-.909 10.072-2.652 17.688-4.76 24.112h-30.115c-16.542 0-30 13.458-30 30v372c0 16.542 13.458 30 30 30h452c16.542 0 30-13.458 30-30v-372c0-16.541-13.458-29.999-30-29.999zm10 30v148h-169.352l15.716-35.059c2.259-5.04.005-10.957-5.035-13.216-5.039-2.262-10.957-.005-13.215 5.034l-22.032 49.149c-1.387 3.095-1.112 6.681.731 9.526 1.843 2.847 5.003 4.565 8.394 4.565h184.793v36h-126c-5.523 0-10 4.478-10 10v167.25h-36v-167.25c0-5.522-4.477-10-10-10h-108c-5.523 0-10 4.478-10 10v167.25h-36v-167.25c0-5.522-4.477-10-10-10h-126v-36h225.838c3.94 0 7.513-2.314 9.125-5.909l77.145-172.091h39.451l-14.631 32.639c-2.259 5.04-.005 10.957 5.035 13.216 1.328.596 2.717.878 4.085.878 3.82 0 7.467-2.201 9.131-5.912l18.299-40.82h88.524c5.512 0 9.998 4.486 9.998 10zm-192 382h-88v-158h88zm-216.215-425.741c9.127 16.749 9.684 33.066 9.375 40.293-.366 3-.43 4.894-.438 5.217-.138 5.26 3.824 9.726 9.063 10.218 5.239.51 9.962-3.16 10.805-8.355.052-.321.36-2.327.533-5.609 1.138-8.471 5.39-27.699 21.05-40.697 12.841-10.658 19.191-22.979 19.137-37.311 31.431 27.964 17.806 70.28 17.134 72.29-1.522 4.456.271 9.37 4.306 11.799 4.035 2.427 9.216 1.714 12.442-1.717.737-.783 16.517-17.832 21.745-44.6 12.363 22.317 17.499 42.549 17.499 67.924 0 28.217-14.469 53.11-36.37 67.677 1.239-4.195 1.915-8.63 1.915-13.222 0-24.692-16.85-53.943-40.976-71.134-3.048-2.171-7.056-2.46-10.384-.744-3.328 1.715-5.419 5.145-5.419 8.889 0 3.864-4.168 7.839-10.97 14.002-10.892 9.87-25.808 23.388-25.808 48.987 0 4.592.676 9.026 1.915 13.222-21.901-14.566-36.37-39.46-36.37-67.678 0-14.371 3.574-22.192 8.099-32.094 4.336-9.493 9.175-20.083 11.717-37.357zm34.638 123.906c0-16.733 9.345-25.202 19.238-34.167 4.22-3.825 8.512-7.714 11.793-12.203 14.829 14.681 22.526 33.334 22.526 46.37 0 14.766-12.013 26.778-26.779 26.778-14.765 0-26.778-12.012-26.778-26.778zm-88.423-90.165h21.759c-4.11 9.332-7.791 19.706-7.791 35.709v.001c0 55.82 45.413 101.233 101.233 101.233 55.82 0 101.233-45.413 101.233-101.234 0-12.688-1.188-24.401-3.718-35.709h67.473l-70.828 158h-219.361v-148c0-5.514 4.486-10 10-10zm-10 382v-148h116v158h-106c-5.514 0-10-4.486-10-10zm462 10h-106v-158h116v148c0 5.514-4.486 10-10 10z"/><path id="XMLID_288_" d="m347.654 167.798c-2.63 0-5.21 1.069-7.08 2.93-1.86 1.86-2.92 4.441-2.92 7.07 0 2.63 1.06 5.21 2.92 7.069 1.87 1.86 4.45 2.931 7.08 2.931s5.2-1.07 7.07-2.931c1.86-1.859 2.93-4.439 2.93-7.069s-1.07-5.21-2.93-7.07c-1.87-1.861-4.44-2.93-7.07-2.93z"/></g></g></svg>