<svg id="Capa_1" enable-background="new 0 0 512 512" height="512" viewBox="0 0 512 512" width="512" xmlns="http://www.w3.org/2000/svg"><g><path d="m484.7 228.7c0 101.84-67.7 191.62-165.15 219.74l-63.55 63.56-63.56-63.56c-97.44-28.12-165.14-117.9-165.14-219.74 0-61.09 23.79-118.52 66.99-161.72 43.19-43.19 100.62-66.98 161.71-66.98s118.52 23.79 161.71 66.98c43.2 43.2 66.99 100.63 66.99 161.72z" fill="#c68ef4"/><path d="m484.7 228.7c0 101.84-67.7 191.62-165.15 219.74l-63.55 63.56v-512c61.09 0 118.52 23.79 161.71 66.98 43.2 43.2 66.99 100.63 66.99 161.72z" fill="#8e4dd5"/><ellipse cx="256" cy="228.7" fill="#fbf3f3" rx="152.13" ry="152.13" transform="matrix(.707 -.707 .707 .707 -86.735 248.004)"/><path d="m408.13 228.7c0 84.01-68.11 152.13-152.13 152.13v-304.26c84.02 0 152.13 68.11 152.13 152.13z" fill="#e8e3f0"/><path d="m256 61.57c-92.16 0-167.13 74.97-167.13 167.13 0 92.15 74.97 167.13 167.13 167.13s167.13-74.98 167.13-167.13c0-92.16-74.97-167.13-167.13-167.13zm0 304.26c-75.61 0-137.13-61.52-137.13-137.13 0-75.62 61.52-137.13 137.13-137.13s137.13 61.51 137.13 137.13c0 75.61-61.52 137.13-137.13 137.13z" fill="#8e4dd5"/><path d="m423.13 228.7c0 92.15-74.97 167.13-167.13 167.13v-30c75.61 0 137.13-61.52 137.13-137.13 0-75.62-61.52-137.13-137.13-137.13v-30c92.16 0 167.13 74.97 167.13 167.13z" fill="#613393"/><path d="m335.274 245.206c0 43.791-35.492 79.284-79.274 79.284s-79.274-35.492-79.274-79.284c0-64.802 79.274-112.472 79.274-112.472s79.274 47.67 79.274 112.472z" fill="#ff7f3b"/><path d="m335.274 245.206c0 43.791-35.492 79.284-79.274 79.284v-191.755s79.274 47.669 79.274 112.471z" fill="#ff3044"/><path d="m272.913 280.909-16.913 43.581c-22.61 0-40.94-18.33-40.94-40.94 0-33.46 40.94-58.07 40.94-58.07z" fill="#ffe652"/><path d="m296.94 283.55c0 22.61-18.33 40.94-40.94 40.94v-99.01s40.94 24.61 40.94 58.07z" fill="#f4c338"/></g></svg>