<?xml version="1.0" encoding="iso-8859-1"?>
<!-- Generator: Adobe Illustrator 19.0.0, SVG Export Plug-In . SVG Version: 6.00 Build 0)  -->
<svg version="1.1" id="Capa_1" xmlns="http://www.w3.org/2000/svg" xmlns:xlink="http://www.w3.org/1999/xlink" x="0px" y="0px"
	 viewBox="0 0 512 512" style="enable-background:new 0 0 512 512;" xml:space="preserve">
<g>
	<g>
		<path fill="#f5f5f5"  d="M392.856,256.627v15.011c0,75.463-61.393,136.855-136.855,136.855S119.146,347.1,119.146,271.638
			c0-75.463,61.393-136.856,136.855-136.856c16.403,0,32.676,2.957,47.912,8.639l-52.373,59.481l218.602,12.376L430.198,0
			L374.95,62.745C338.815,42.121,297.958,31.276,256,31.276c-64.203,0-124.563,25.002-169.961,70.401
			c-45.399,45.399-70.401,105.758-70.401,169.961S40.64,396.201,86.039,441.599C131.438,486.997,191.797,512,256,512
			s124.563-25.001,169.961-70.401c45.399-45.399,70.401-105.758,70.401-169.961v-15.011H392.856z"/>
	</g>
</g>
<g>
</g>
<g>
</g>
<g>
</g>
<g>
</g>
<g>
</g>
<g>
</g>
<g>
</g>
<g>
</g>
<g>
</g>
<g>
</g>
<g>
</g>
<g>
</g>
<g>
</g>
<g>
</g>
<g>
</g>
</svg>
